<svg width="20" height="22" viewBox="0 0 20 22" fill="none" xmlns="http://www.w3.org/2000/svg">
<g clip-path="url(#clip0_3_739)">
<path d="M20 11.0393C20 10.1539 19.9319 9.5077 19.7846 8.83763H10.2041V12.8341H15.8276C15.7143 13.8273 15.102 15.323 13.7415 16.3281L13.7224 16.4619L16.7516 18.9385L16.9614 18.9606C18.8888 17.082 20 14.3179 20 11.0393Z" fill="#4285F4"/>
<path d="M10.2041 21.5691C12.9591 21.5691 15.272 20.6118 16.9614 18.9606L13.7415 16.3281C12.8798 16.9623 11.7233 17.405 10.2041 17.405C7.50569 17.405 5.21545 15.5265 4.39905 12.9299L4.27938 12.9406L1.1296 15.5133L1.08841 15.6341C2.7664 19.152 6.21312 21.5691 10.2041 21.5691Z" fill="#34A853"/>
<path d="M4.39905 12.9299C4.18363 12.2598 4.05897 11.5418 4.05897 10.8C4.05897 10.0581 4.18363 9.34016 4.38772 8.67009L4.38201 8.52738L1.19276 5.91342L1.08841 5.9658C0.39683 7.42564 0 9.06497 0 10.8C0 12.535 0.39683 14.1743 1.08841 15.6341L4.39905 12.9299Z" fill="#FBBC05"/>
<path d="M10.2041 4.1949C12.1202 4.1949 13.4126 5.06839 14.1496 5.79835L17.0294 2.83084C15.2608 1.09581 12.9591 0.0308609 10.2041 0.0308609C6.21312 0.0308609 2.7664 2.44792 1.08841 5.96581L4.38772 8.6701C5.21545 6.07354 7.50569 4.1949 10.2041 4.1949Z" fill="#EB4335"/>
</g>
<defs>
<clipPath id="clip0_3_739">
<rect width="20" height="21.6" fill="white"/>
</clipPath>
</defs>
</svg>
