<svg width="35" height="34" viewBox="0 0 35 34" fill="none" xmlns="http://www.w3.org/2000/svg">
<path d="M17 10C13.1343 10 10 13.1354 10 17C10 20.8668 13.1343 24 17 24C20.8657 24 24 20.8668 24 17C24 13.1354 20.8657 10 17 10ZM17 13.1048C17.6547 13.1048 18.1855 13.6356 18.1855 14.2903C18.1855 14.945 17.6547 15.4758 17 15.4758C16.3453 15.4758 15.8145 14.945 15.8145 14.2903C15.8145 13.6356 16.3453 13.1048 17 13.1048ZM18.5806 20.2742C18.5806 20.4612 18.429 20.6129 18.2419 20.6129H15.7581C15.571 20.6129 15.4194 20.4612 15.4194 20.2742V19.5968C15.4194 19.4097 15.571 19.2581 15.7581 19.2581H16.0968V17.4516H15.7581C15.571 17.4516 15.4194 17.3 15.4194 17.1129V16.4355C15.4194 16.2484 15.571 16.0968 15.7581 16.0968H17.5645C17.7516 16.0968 17.9032 16.2484 17.9032 16.4355V19.2581H18.2419C18.429 19.2581 18.5806 19.4097 18.5806 19.5968V20.2742Z" fill="#0E4B83"/>
</svg>
