<svg width="42" height="40" viewBox="0 0 42 40" fill="none" xmlns="http://www.w3.org/2000/svg">
<path d="M10.8134 13.556H31.1866C31.6193 13.556 31.9701 13.2052 31.9701 12.7724V10.8134C31.9701 10.3807 31.6193 10.0299 31.1866 10.0299H10.8134C10.3807 10.0299 10.0299 10.3807 10.0299 10.8134V12.7724C10.0299 13.2052 10.3807 13.556 10.8134 13.556ZM10.8134 21.3918H31.1866C31.6193 21.3918 31.9701 21.041 31.9701 20.6082V18.6493C31.9701 18.2165 31.6193 17.8657 31.1866 17.8657H10.8134C10.3807 17.8657 10.0299 18.2165 10.0299 18.6493V20.6082C10.0299 21.041 10.3807 21.3918 10.8134 21.3918ZM10.8134 29.2276H31.1866C31.6193 29.2276 31.9701 28.8768 31.9701 28.444V26.4851C31.9701 26.0523 31.6193 25.7015 31.1866 25.7015H10.8134C10.3807 25.7015 10.0299 26.0523 10.0299 26.4851V28.444C10.0299 28.8768 10.3807 29.2276 10.8134 29.2276Z" fill="#FAF8F8"/>
</svg>
