<svg width="42" height="45" viewBox="0 0 42 45" fill="none" xmlns="http://www.w3.org/2000/svg">
<path d="M20.9375 35C22.6621 35 24.0611 33.6011 24.0611 31.875H17.814C17.814 33.6011 19.2129 35 20.9375 35ZM31.4546 27.6899C30.5113 26.6763 28.7461 25.1514 28.7461 20.1562C28.7461 16.3623 26.086 13.3252 22.4991 12.5801V11.5625C22.4991 10.6997 21.7998 10 20.9375 10C20.0752 10 19.376 10.6997 19.376 11.5625V12.5801C15.7891 13.3252 13.1289 16.3623 13.1289 20.1562C13.1289 25.1514 11.3638 26.6763 10.4204 27.6899C10.1275 28.0049 9.99759 28.3813 10 28.75C10.0054 29.5508 10.6338 30.3125 11.5674 30.3125H30.3077C31.2412 30.3125 31.8702 29.5508 31.875 28.75C31.8775 28.3813 31.7476 28.0044 31.4546 27.6899Z" fill="#FEFAFA"/>
</svg>
